<svg width="512" height="512" viewBox="0 0 512 512" fill="none" xmlns="http://www.w3.org/2000/svg">
<g clip-path="url(#clip0_130_2)">
<rect width="512" height="512" rx="40" fill="white"/>
<path d="M154.036 110.091H189.263V318.045C189.263 336.606 185.854 352.373 179.036 365.347C172.218 378.32 162.606 388.169 150.201 394.892C137.796 401.616 123.165 404.977 106.309 404.977C90.3999 404.977 76.2427 402.089 63.8374 396.312C51.4321 390.441 41.6783 382.108 34.576 371.312C27.4737 360.517 23.9226 347.686 23.9226 332.818H58.5817C58.5817 341.057 60.6177 348.254 64.6896 354.409C68.8563 360.47 74.5381 365.205 81.7351 368.614C88.9321 372.023 97.1233 373.727 106.309 373.727C116.442 373.727 125.059 371.597 132.161 367.335C139.263 363.074 144.661 356.824 148.354 348.585C152.142 340.252 154.036 330.072 154.036 318.045V110.091ZM239.86 401V110.091H275.087V369.75H410.315V401H239.86ZM473.837 110.091V401H440.315V110.091H473.837Z" fill="black"/>
</g>
<defs>
<clipPath id="clip0_130_2">
<rect width="512" height="512" fill="white"/>
</clipPath>
</defs>
</svg>
