<svg width="512" height="512" viewBox="0 0 512 512" fill="none" xmlns="http://www.w3.org/2000/svg">
<g clip-path="url(#clip0_131_32)">
<rect width="512" height="512" rx="40" fill="white"/>
<mask id="path-2-outside-1_131_32" maskUnits="userSpaceOnUse" x="146" y="84" width="198" height="348" fill="black">
<rect fill="white" x="146" y="84" width="198" height="348"/>
<path d="M300.172 86.8182H341.123V328.565C341.123 350.142 337.16 368.471 329.234 383.553C321.308 398.635 310.134 410.083 295.713 417.9C281.292 425.716 264.284 429.624 244.689 429.624C226.194 429.624 209.737 426.266 195.316 419.551C180.894 412.725 169.556 403.038 161.299 390.488C153.043 377.939 148.915 363.022 148.915 345.739H189.206C189.206 355.316 191.573 363.683 196.306 370.838C201.15 377.884 207.755 383.388 216.122 387.351C224.488 391.314 234.01 393.295 244.689 393.295C256.468 393.295 266.486 390.819 274.742 385.865C282.998 380.911 289.273 373.645 293.567 364.068C297.97 354.38 300.172 342.546 300.172 328.565V86.8182Z"/>
</mask>
<path d="M300.172 86.8182H341.123V328.565C341.123 350.142 337.16 368.471 329.234 383.553C321.308 398.635 310.134 410.083 295.713 417.9C281.292 425.716 264.284 429.624 244.689 429.624C226.194 429.624 209.737 426.266 195.316 419.551C180.894 412.725 169.556 403.038 161.299 390.488C153.043 377.939 148.915 363.022 148.915 345.739H189.206C189.206 355.316 191.573 363.683 196.306 370.838C201.15 377.884 207.755 383.388 216.122 387.351C224.488 391.314 234.01 393.295 244.689 393.295C256.468 393.295 266.486 390.819 274.742 385.865C282.998 380.911 289.273 373.645 293.567 364.068C297.97 354.38 300.172 342.546 300.172 328.565V86.8182Z" fill="black"/>
<path d="M300.172 86.8182V84.8182H298.172V86.8182H300.172ZM341.123 86.8182H343.123V84.8182H341.123V86.8182ZM329.234 383.553L331.005 384.483V384.483L329.234 383.553ZM295.713 417.9L296.666 419.658V419.658L295.713 417.9ZM195.316 419.551L194.46 421.359L194.471 421.364L195.316 419.551ZM161.299 390.488L159.628 391.588H159.628L161.299 390.488ZM148.915 345.739V343.739H146.915V345.739H148.915ZM189.206 345.739H191.206V343.739H189.206V345.739ZM196.306 370.838L194.638 371.942L194.648 371.956L194.658 371.971L196.306 370.838ZM216.122 387.351L216.978 385.543V385.543L216.122 387.351ZM274.742 385.865L273.713 384.15V384.15L274.742 385.865ZM293.567 364.068L291.746 363.24L291.742 363.25L293.567 364.068ZM300.172 86.8182V88.8182H341.123V86.8182V84.8182H300.172V86.8182ZM341.123 86.8182H339.123V328.565H341.123H343.123V86.8182H341.123ZM341.123 328.565H339.123C339.123 349.902 335.204 367.894 327.464 382.622L329.234 383.553L331.005 384.483C339.116 369.048 343.123 350.382 343.123 328.565H341.123ZM329.234 383.553L327.464 382.622C319.715 397.368 308.819 408.522 294.76 416.141L295.713 417.9L296.666 419.658C311.45 411.645 322.902 399.902 331.005 384.483L329.234 383.553ZM295.713 417.9L294.76 416.141C280.684 423.77 264.016 427.624 244.689 427.624V429.624V431.624C264.552 431.624 281.901 427.661 296.666 419.658L295.713 417.9ZM244.689 429.624V427.624C226.439 427.624 210.277 424.311 196.16 417.738L195.316 419.551L194.471 421.364C209.197 428.221 225.95 431.624 244.689 431.624V429.624ZM195.316 419.551L196.171 417.743C182.06 411.065 171.012 401.613 162.97 389.389L161.299 390.488L159.628 391.588C168.099 404.463 179.729 414.386 194.46 421.359L195.316 419.551ZM161.299 390.488L162.97 389.389C154.959 377.213 150.915 362.692 150.915 345.739H148.915H146.915C146.915 363.352 151.126 378.664 159.628 391.588L161.299 390.488ZM148.915 345.739V347.739H189.206V345.739V343.739H148.915V345.739ZM189.206 345.739H187.206C187.206 355.661 189.663 364.421 194.638 371.942L196.306 370.838L197.974 369.735C193.482 362.944 191.206 354.971 191.206 345.739H189.206ZM196.306 370.838L194.658 371.971C199.718 379.331 206.607 385.057 215.265 389.158L216.122 387.351L216.978 385.543C208.903 381.718 202.582 376.436 197.954 369.705L196.306 370.838ZM216.122 387.351L215.265 389.158C223.938 393.266 233.76 395.295 244.689 395.295V393.295V391.295C234.261 391.295 225.038 389.362 216.978 385.543L216.122 387.351ZM244.689 393.295V395.295C256.75 395.295 267.141 392.758 275.771 387.58L274.742 385.865L273.713 384.15C265.83 388.879 256.186 391.295 244.689 391.295V393.295ZM274.742 385.865L275.771 387.58C284.41 382.396 290.947 374.801 295.392 364.886L293.567 364.068L291.742 363.25C287.6 372.489 281.587 379.425 273.713 384.15L274.742 385.865ZM293.567 364.068L295.387 364.895C299.94 354.88 302.172 342.746 302.172 328.565H300.172H298.172C298.172 342.346 296 353.881 291.746 363.24L293.567 364.068ZM300.172 328.565H302.172V86.8182H300.172H298.172V328.565H300.172Z" fill="black" mask="url(#path-2-outside-1_131_32)"/>
</g>
<defs>
<clipPath id="clip0_131_32">
<rect width="512" height="512" fill="white"/>
</clipPath>
</defs>
</svg>
